<svg width="20" height="20" viewBox="0 0 20 20" fill="none" xmlns="http://www.w3.org/2000/svg">
<path fill-rule="evenodd" clip-rule="evenodd" d="M7.5 14.1641C8.88071 14.1641 10 15.2834 10 16.6641C10 18.0448 8.88071 19.1641 7.5 19.1641L6.66667 19.1641C6.20643 19.1641 5.83333 18.791 5.83333 18.3307C5.83333 17.8705 6.20643 17.4974 6.66667 17.4974L7.5 17.4974C7.96024 17.4974 8.33333 17.1243 8.33333 16.6641C8.33333 16.2038 7.96024 15.8307 7.5 15.8307L6.66667 15.8307C6.20643 15.8307 5.83333 15.4576 5.83333 14.9974C5.83333 14.5372 6.20643 14.1641 6.66667 14.1641L7.5 14.1641Z" fill="#8A8A8A"/>
<path fill-rule="evenodd" clip-rule="evenodd" d="M10.834 7.5C12.2147 7.5 13.334 8.61929 13.334 10C13.334 11.3807 12.2147 12.5 10.834 12.5L6.66732 12.5C6.20708 12.5 5.83398 12.1269 5.83398 11.6667C5.83398 11.2064 6.20708 10.8333 6.66732 10.8333L10.834 10.8333C11.2942 10.8333 11.6673 10.4602 11.6673 10C11.6673 9.53976 11.2942 9.16667 10.834 9.16667L6.66732 9.16667C6.20708 9.16667 5.83398 8.79357 5.83398 8.33333C5.83398 7.8731 6.20708 7.5 6.66732 7.5L10.834 7.5Z" fill="#8A8A8A"/>
<path fill-rule="evenodd" clip-rule="evenodd" d="M15 0.835937C16.3807 0.835937 17.5 1.95523 17.5 3.33594C17.5 4.71665 16.3807 5.83594 15 5.83594L6.66667 5.83594C6.20643 5.83594 5.83333 5.46284 5.83333 5.0026C5.83333 4.54237 6.20643 4.16927 6.66667 4.16927L15 4.16927C15.4602 4.16927 15.8333 3.79617 15.8333 3.33594C15.8333 2.8757 15.4602 2.5026 15 2.5026L6.66667 2.5026C6.20643 2.5026 5.83333 2.12951 5.83333 1.66927C5.83333 1.20903 6.20643 0.835937 6.66667 0.835937L15 0.835937Z" fill="#8A8A8A"/>
<path fill-rule="evenodd" clip-rule="evenodd" d="M3.33333 0.835938C3.79357 0.835938 4.16667 1.20903 4.16667 1.66927V18.3359C4.16667 18.7962 3.79357 19.1693 3.33333 19.1693C2.8731 19.1693 2.5 18.7962 2.5 18.3359V1.66927C2.5 1.20903 2.8731 0.835938 3.33333 0.835938Z" fill="#8A8A8A"/>
</svg>
